<?xml version="1.0" standalone="no"?>
<!DOCTYPE svg PUBLIC "-//W3C//DTD SVG 20010904//EN"
 "http://www.w3.org/TR/2001/REC-SVG-20010904/DTD/svg10.dtd">
<svg version="1.0" xmlns="http://www.w3.org/2000/svg"
 width="479.000000pt" height="165.000000pt" viewBox="0 0 479.000000 165.000000"
 preserveAspectRatio="xMidYMid meet">

<g transform="translate(0.000000,165.000000) scale(0.100000,-0.100000)"
fill="#000000" stroke="none">
<path d="M2253 1608 c-19 -9 -29 -26 -47 -80 -5 -16 -20 -18 -136 -18 l-130 0
0 -105 0 -105 25 0 25 0 0 -260 0 -260 500 0 500 0 0 260 c0 253 1 260 20 260
19 0 20 7 20 105 l0 105 -129 0 -128 0 -6 28 c-3 15 -17 40 -32 56 -24 26 -31
28 -85 24 -47 -3 -67 -10 -97 -34 -74 -59 -76 -60 -133 -9 -45 40 -56 45 -98
44 -26 0 -57 -5 -69 -11z m140 -58 l42 -39 -97 -1 c-91 0 -98 1 -98 20 0 32
36 60 75 60 28 0 45 -9 78 -40z m313 32 c17 -11 36 -51 29 -62 -3 -6 -54 -10
-113 -10 l-107 1 35 30 c19 16 44 34 55 39 25 11 86 12 101 2z m294 -177 l0
-75 -515 0 -515 0 0 75 0 75 515 0 515 0 0 -75z m-40 -355 l0 -240 -470 0
-470 0 0 240 0 240 470 0 470 0 0 -240z"/>
<path d="M2371 1174 c-36 -46 -25 -97 35 -164 21 -23 50 -48 66 -56 28 -15 29
-14 82 39 70 70 88 120 59 169 -22 39 -61 48 -99 23 -23 -15 -27 -15 -43 -1
-28 25 -76 20 -100 -10z m95 -42 l23 -33 28 36 c32 40 57 45 73 14 16 -28 5
-65 -32 -111 -50 -63 -64 -66 -110 -21 -22 21 -47 53 -55 71 -12 30 -12 37 2
59 21 31 44 26 71 -15z"/>
<path d="M440 360 l0 -230 25 0 c25 0 25 1 25 84 0 108 7 140 36 170 32 31 77
39 119 22 43 -18 55 -58 55 -183 0 -92 0 -93 25 -93 l25 0 0 103 c0 120 -10
165 -46 198 -22 21 -35 24 -94 24 -51 0 -73 -4 -87 -17 -11 -10 -23 -18 -26
-18 -4 0 -7 38 -7 85 0 84 0 85 -25 85 l-25 0 0 -230z"/>
<path d="M2554 576 c-11 -28 4 -48 33 -44 22 2 28 8 28 28 0 20 -6 26 -28 28
-18 2 -29 -2 -33 -12z"/>
<path d="M30 545 c0 -24 2 -25 75 -25 l75 0 0 -195 0 -195 25 0 25 0 0 195 0
195 75 0 c73 0 75 1 75 25 l0 25 -175 0 -175 0 0 -25z"/>
<path d="M1410 350 l0 -220 25 0 c24 0 25 2 25 70 l0 71 72 -3 72 -3 46 -65
c34 -48 53 -66 73 -68 15 -2 27 0 27 4 0 3 -21 36 -46 71 l-46 65 36 29 c93
77 59 228 -58 258 -25 6 -86 11 -135 11 l-91 0 0 -220z m238 150 c43 -26 57
-63 42 -112 -15 -51 -54 -70 -152 -76 l-78 -5 0 107 0 106 78 0 c59 0 84 -5
110 -20z"/>
<path d="M3690 351 l0 -221 128 0 c185 1 232 25 232 123 0 35 -6 50 -26 71
-15 14 -31 26 -37 26 -6 0 -1 11 12 24 27 29 37 86 22 124 -22 52 -62 66 -203
70 l-128 4 0 -221z m265 144 c29 -28 31 -51 10 -82 -20 -29 -73 -43 -157 -43
l-68 0 0 75 0 75 95 0 c88 0 98 -2 120 -25z m0 -179 c55 -23 61 -83 13 -119
-21 -16 -47 -21 -127 -25 l-101 -5 0 82 0 81 90 0 c56 0 104 -5 125 -14z"/>
<path d="M910 441 c-106 -56 -106 -230 0 -290 64 -36 170 -25 208 22 10 11 9
17 -1 25 -10 9 -23 7 -52 -8 -47 -24 -63 -25 -113 -5 -35 14 -72 57 -72 84 0
7 44 11 136 11 l137 0 -7 42 c-9 57 -32 92 -76 117 -47 26 -114 27 -160 2z
m125 -35 c28 -12 65 -58 65 -81 0 -3 -49 -5 -110 -5 -60 0 -110 2 -110 5 0 22
37 69 63 80 41 18 50 18 92 1z"/>
<path d="M1890 441 c-106 -56 -106 -230 0 -290 64 -36 170 -25 208 22 10 11 9
17 -1 25 -10 9 -23 7 -52 -8 -47 -24 -63 -25 -113 -5 -35 14 -72 57 -72 84 0
7 44 11 136 11 l137 0 -7 42 c-9 57 -32 92 -76 117 -47 26 -114 27 -160 2z
m125 -35 c28 -12 65 -58 65 -81 0 -3 -49 -5 -110 -5 -60 0 -110 2 -110 5 0 22
37 69 63 80 41 18 50 18 92 1z"/>
<path d="M2275 446 c-127 -55 -121 -257 8 -305 61 -23 154 -5 189 36 10 12 9
18 -6 28 -15 11 -23 10 -53 -11 -45 -30 -80 -30 -124 -1 -45 30 -61 63 -56
116 9 91 105 138 178 88 26 -18 41 -22 53 -15 12 7 14 14 6 27 -23 45 -131 65
-195 37z"/>
<path d="M2560 295 l0 -165 25 0 25 0 0 165 0 165 -25 0 -25 0 0 -165z"/>
<path d="M2730 235 c0 -218 1 -225 20 -225 18 0 20 7 20 80 0 44 2 80 5 80 3
0 22 -9 42 -20 81 -43 185 -13 223 65 60 123 -24 254 -154 243 -33 -3 -65 -13
-84 -27 l-32 -22 0 25 c0 19 -5 26 -20 26 -19 0 -20 -7 -20 -225z m244 146
c27 -27 31 -38 31 -86 0 -46 -4 -58 -29 -84 -76 -79 -196 -27 -196 84 0 112
117 163 194 86z"/>
<path d="M3194 441 c-69 -42 -96 -111 -75 -191 21 -79 78 -120 167 -120 44 0
108 22 120 42 4 6 0 16 -8 24 -11 12 -20 11 -56 -7 -31 -16 -52 -19 -78 -15
-39 8 -89 50 -99 84 l-6 22 135 0 136 0 0 33 c0 45 -38 106 -80 128 -45 24
-116 24 -156 0z m143 -47 c25 -15 50 -60 41 -69 -3 -3 -53 -4 -111 -3 l-106 3
16 34 c28 58 101 74 160 35z"/>
<path d="M4205 446 c-103 -46 -125 -200 -39 -276 78 -68 215 -46 260 42 20 38
20 128 0 166 -25 48 -72 76 -135 79 -33 2 -69 -2 -86 -11z m132 -46 c41 -25
55 -51 55 -106 0 -54 -21 -89 -66 -111 -46 -22 -98 -11 -130 28 -47 56 -47
126 2 171 46 43 89 49 139 18z"/>
<path d="M4480 454 c0 -3 25 -38 55 -77 30 -39 55 -74 55 -77 0 -4 -27 -42
-60 -85 -33 -43 -60 -79 -60 -81 0 -2 13 -4 28 -4 23 0 37 12 76 65 26 36 49
65 51 65 2 0 25 -29 51 -65 40 -54 53 -65 77 -65 33 0 33 0 -40 92 -29 37 -53
72 -53 78 0 6 25 42 55 80 30 38 55 71 55 74 0 4 -11 6 -25 6 -19 0 -37 -15
-72 -60 -25 -33 -47 -60 -48 -60 -1 0 -23 27 -49 60 -35 44 -54 60 -72 60 -13
0 -24 -3 -24 -6z"/>
</g>
</svg>
